<svg id="Layer_1" data-name="Layer 1" xmlns="http://www.w3.org/2000/svg" viewBox="0 0 530 625.115">
  <defs>
    <style>
      .cls-1 {
        fill: #dddeb9;
      }
    </style>
  </defs>
  <title>79c6bda9-2af7-4889-b7e6-9f20e3b0a2a0</title>
  <g>
    <g>
      <path d="M86.176,599.677l-13.452.084L37.1,557.334v42.341H27.666v-78.44H37.1v34.474l32.946-34.493,12.72.02L47.914,556Z"/>
      <path d="M202.142,559.872a41.826,41.826,0,0,1-41.87,41.923,42.787,42.787,0,0,1-30.263-11.834,38.183,38.183,0,0,1-12.667-29.029,41.829,41.829,0,0,1,41.87-41.923,42.8,42.8,0,0,1,30.263,11.834A38.194,38.194,0,0,1,202.142,559.872Zm-9.752-.212a30.407,30.407,0,0,0-9.752-22.828,32.664,32.664,0,0,0-23.426-9.343,30.3,30.3,0,0,0-22.79,9.769,32.764,32.764,0,0,0-9.328,23.464,30.312,30.312,0,0,0,9.7,22.773,32.7,32.7,0,0,0,23.479,9.29,30.307,30.307,0,0,0,22.79-9.768A32.641,32.641,0,0,0,192.39,559.66Z"/>
      <path d="M310.58,599.675H300.3l-8.586-59.257-24.949,61.4-2.705-.031-24.41-61.669L230.3,599.688l-9.714-.014,15.58-80.666h3.287L266.273,584.3l26.287-65.294h3.285Z"/>
      <path d="M399.408,596.177a65.408,65.408,0,0,1-11.184,3.6,52.419,52.419,0,0,1-11.5,1.271,46,46,0,0,1-15.582-2.65,41.544,41.544,0,0,1-13.567-8.056q-12.51-12.719-12.508-30,0-11.234,4.929-19.292a56.863,56.863,0,0,1,9.646-12.349,31.36,31.36,0,0,1,9.011-6.042,49.722,49.722,0,0,1,7-2.385,47.036,47.036,0,0,1,5.512-.954,48.522,48.522,0,0,1,5.459-.318,52.937,52.937,0,0,1,8.268.689,69.916,69.916,0,0,1,8.692,1.961l5.83,2.649V534.7a36.559,36.559,0,0,0-21.624-7,34.51,34.51,0,0,0-14.84,3.232,31.378,31.378,0,0,0-11.872,9.911,34.861,34.861,0,0,0-5.937,19.4,33.557,33.557,0,0,0,4.5,16.906,29.088,29.088,0,0,0,12.4,11.872A35.353,35.353,0,0,0,378.1,593,29.309,29.309,0,0,0,393.9,588.65l5.512-3.5Z"/>
      <path d="M512.087,599.675l-11.006-.008-10.035-24.372H459.79l-10.061,24.368-10.149.012,34.452-80.666h2.544Zm-24.053-31.482-13.17-33.863-12.733,33.863Z"/>
    </g>
    <path class="cls-1" d="M14.049,192.119,265.273,0,516.5,192.119ZM88.161,166.99H442.4c-12.468-9.526-24.266-18.532-36.055-27.549Q337.761,86.989,269.241,34.46c-3.021-2.321-4.9-2.329-7.927-.005Q194.105,86.1,126.714,137.516C114.091,147.171,101.463,156.821,88.161,166.99Z"/>
    <path class="cls-1" d="M.387,507.73V483.2H530v24.53Z"/>
    <path class="cls-1" d="M38.265,457.229V432.7H492.125v24.525Z"/>
    <path class="cls-1" d="M100.971,205.44V419.4H76.325V205.44Z"/>
    <path class="cls-1" d="M164.523,419.378V205.452h24.686V419.378Z"/>
    <path class="cls-1" d="M253.037,205.386h24.552V419.393H253.037Z"/>
    <path class="cls-1" d="M354.029,205.384h24.555v214H354.029Z"/>
    <path class="cls-1" d="M467.078,205.436V419.4h-24.69V205.436Z"/>
    <path class="cls-1" d="M88.161,166.99c13.3-10.169,25.93-19.819,38.554-29.474q67.328-51.494,134.6-103.061c3.023-2.323,4.907-2.316,7.927.005q68.459,52.609,137.1,104.982c11.789,9.017,23.587,18.023,36.055,27.549Z"/>
  </g>
</svg>
