<svg id="Layer_1" data-name="Layer 1" xmlns="http://www.w3.org/2000/svg" viewBox="0 0 558.084 352.592">
  <defs>
    <style>
      .cls-1 {
        fill: #7a7a79;
      }

      .cls-2 {
        fill: none;
        stroke: #fff;
        stroke-miterlimit: 10;
      }

      .cls-3 {
        fill: #dddeb9;
      }

      .cls-4 {
        fill: #c3c28d;
      }

      .cls-5 {
        fill: #56584f;
      }

      .cls-6 {
        fill: #494f44;
      }

      .cls-7 {
        fill: #231f20;
      }

      .cls-8 {
        fill: #5b3c25;
      }

      .cls-9 {
        fill: #906d4b;
      }

      .cls-10 {
        fill: #f9fbf7;
      }
    </style>
  </defs>
  <title>f9b60f59-5767-4192-bfe3-3aed2d93a4e2</title>
  <g>
    <polygon class="cls-1" points="352.579 0 558.084 117.66 541.499 127.236 335.492 9.865 352.579 0"/>
    <polygon class="cls-1" points="156.252 121.119 540.395 343.016 523.809 352.592 139.165 130.984 156.252 121.119"/>
    <polygon class="cls-1" points="353.008 0 0 205.299 16.585 214.873 370.094 9.865 353.008 0"/>
    <line class="cls-2" x1="463.601" y1="307.578" x2="477.187" y2="315.344"/>
    <line class="cls-2" x1="489.232" y1="321.68" x2="502.82" y2="329.445"/>
    <line class="cls-2" x1="430.9" y1="290.732" x2="444.488" y2="298.498"/>
    <line class="cls-2" x1="401.758" y1="273.191" x2="415.346" y2="280.957"/>
    <line class="cls-2" x1="345.326" y1="240.273" x2="358.913" y2="248.039"/>
    <line class="cls-2" x1="373.015" y1="256.41" x2="386.603" y2="264.176"/>
    <g>
      <line class="cls-2" x1="358.799" y1="13.055" x2="372.386" y2="20.822"/>
      <line class="cls-2" x1="391.834" y1="31.748" x2="405.422" y2="39.516"/>
      <line class="cls-2" x1="424.107" y1="50.541" x2="437.693" y2="58.307"/>
      <line class="cls-2" x1="456.807" y1="69.133" x2="470.395" y2="76.898"/>
      <line class="cls-2" x1="489.232" y1="86.791" x2="502.82" y2="94.557"/>
      <line class="cls-2" x1="518.256" y1="104.08" x2="531.844" y2="111.846"/>
    </g>
    <g>
      <line class="cls-2" x1="159.264" y1="133.607" x2="172.852" y2="141.373"/>
      <line class="cls-2" x1="192.3" y1="152.301" x2="205.887" y2="160.066"/>
      <line class="cls-2" x1="224.572" y1="171.092" x2="238.16" y2="178.859"/>
      <line class="cls-2" x1="257.272" y1="189.684" x2="270.859" y2="197.451"/>
      <line class="cls-2" x1="289.698" y1="207.342" x2="303.286" y2="215.109"/>
      <line class="cls-2" x1="318.722" y1="224.633" x2="332.309" y2="232.398"/>
    </g>
    <line class="cls-2" x1="342.258" y1="14.223" x2="328.672" y2="21.988"/>
    <line class="cls-2" x1="309.223" y1="35.633" x2="295.635" y2="43.398"/>
    <line class="cls-2" x1="277.581" y1="53.307" x2="263.994" y2="61.072"/>
    <line class="cls-2" x1="245.787" y1="70.973" x2="232.199" y2="78.74"/>
    <line class="cls-2" x1="211.824" y1="89.775" x2="198.236" y2="97.541"/>
    <line class="cls-2" x1="182.801" y1="108.707" x2="169.213" y2="116.473"/>
    <line class="cls-2" x1="156.151" y1="124.547" x2="142.563" y2="132.313"/>
    <line class="cls-2" x1="129.502" y1="140.387" x2="115.914" y2="148.152"/>
    <g>
      <polyline class="cls-3" points="275.641 73.961 275.641 177.025 316.356 200.215 315.731 97.105"/>
      <polyline class="cls-3" points="315.731 97.105 314.93 119.342 338.086 121.852 338.086 110.014"/>
      <polygon class="cls-4" points="326.871 123.26 326.693 213.682 338.087 211.25 338.086 121.852 326.871 123.26"/>
      <polyline class="cls-3" points="338.086 121.852 338.086 210.771 395.191 244.156 395.191 156.314"/>
      <polyline class="cls-3" points="338.086 110.014 338.266 116.691 395.191 150.123 395.197 142.986"/>
      <polygon class="cls-3" points="395.197 144.986 395.191 244.156 463.524 204.705 463.524 105.547 395.197 144.986"/>
      <polygon class="cls-5" points="326.871 24.66 275.641 73.961 308.147 92.727 323.904 74.857 368.643 48.768 326.871 24.66"/>
      <polygon class="cls-6" points="370.305 90.291 338.086 110.014 323.904 74.857 368.643 48.768 370.305 90.291"/>
      <polygon class="cls-5" points="420.35 78.711 395.197 142.986 338.086 110.014 370.305 90.291 368.643 48.768 420.35 78.711"/>
      <polygon class="cls-6" points="308.147 92.727 311.928 94.91 326.508 79.391 323.904 74.857 308.147 92.727"/>
      <path class="cls-7" d="M409.227,80.469"/>
      <polygon class="cls-8" points="420.35 78.711 463.524 104.113 461.746 105.139 419.662 80.469 420.35 78.711"/>
      <polygon class="cls-8" points="421.906 79.832 397.522 141.141 395.197 142.986 420.07 79.391 421.906 79.832"/>
      <g>
        <polygon class="cls-9" points="338.266 116.691 338.086 121.852 395.191 156.314 395.191 150.123 338.266 116.691"/>
        <polygon class="cls-9" points="275.641 82.408 275.641 89.549 319.815 113.404 319.815 107.621 275.641 82.408"/>
        <polygon class="cls-8" points="319.869 107.381 306.594 107.402 306.594 112.646 319.815 113.404 319.869 107.381"/>
        <polygon class="cls-9" points="306.594 107.402 306.594 113.404 326.871 123.26 326.871 118.131 306.594 107.402"/>
        <polygon class="cls-8" points="338.266 116.691 326.871 118.131 326.871 123.26 338.086 121.852 338.266 116.691"/>
      </g>
      <polyline class="cls-10" points="346.357 128.43 357.576 134.93 357.576 153.43 346.357 147.195 346.357 129.678"/>
      <polyline class="cls-10" points="359.982 136.502 371.201 143.002 371.201 161.502 359.982 155.268 359.982 137.75"/>
      <polyline class="cls-10" points="373.609 144.912 384.826 151.412 384.826 169.912 373.609 163.678 373.609 146.16"/>
      <polyline class="cls-10" points="346.51 155.68 357.719 162.502 357.729 179.914 346.51 173.703 346.51 157.49"/>
      <polyline class="cls-10" points="359.576 162.734 370.783 169.557 370.793 186.969 359.576 180.758 359.576 164.545"/>
      <polyline class="cls-10" points="374.201 172.228 385.408 179.051 385.418 196.461 374.201 190.252 374.201 174.039"/>
      <polyline class="cls-10" points="346.51 183.557 357.719 190.525 357.076 209.146 346.51 202.967 346.51 186.375"/>
      <polyline class="cls-10" points="359.58 190.557 370.788 197.525 370.145 216.146 359.58 209.967 359.58 193.375"/>
      <polyline class="cls-10" points="373.58 199.352 384.788 206.32 384.145 224.941 373.58 218.764 373.58 202.172"/>
      <polyline class="cls-10" points="279.096 93.658 290.304 99.055 290.312 116.691 279.096 110.25 279.096 93.658"/>
      <polyline class="cls-10" points="293.768 100.805 304.986 106.68 304.986 124.375 293.768 117.908 293.768 106.002"/>
      <polyline class="cls-10" points="279.368 120.014 290.586 126.43 290.586 143.512 279.368 137.068 279.368 120.975"/>
      <polyline class="cls-10" points="294.041 129.43 305.258 135.93 305.258 152.691 294.041 146.225 294.041 134.318"/>
      <polyline class="cls-10" points="279.368 146.596 290.586 152.887 290.586 172.228 279.368 165.787 279.368 149.195"/>
      <polyline class="cls-10" points="294.041 154.93 305.258 161.096 305.258 179.914 294.041 173.445 294.041 161.539"/>
      <polyline class="cls-3" points="306.594 113.404 306.594 202.295 326.693 213.682 326.871 123.26"/>
      <g>
        <polygon class="cls-9" points="338.087 143.912 337.908 149.072 395.191 183.152 395.191 176.961 338.087 143.912"/>
        <polygon class="cls-9" points="275.641 109.73 275.641 115.975 306.594 133.58 306.594 127.836 275.641 109.73"/>
        <polygon class="cls-8" points="338.087 143.912 326.693 145.352 326.693 150.48 337.908 149.072 338.087 143.912"/>
        <polygon class="cls-9" points="306.594 133.58 306.594 138.836 326.873 150.459 326.873 145.33 306.594 133.58"/>
      </g>
      <g>
        <polygon class="cls-9" points="338.087 170.248 337.908 175.41 395.191 209.705 395.191 203.514 338.087 170.248"/>
        <polygon class="cls-9" points="275.641 136.068 275.641 142.31 306.594 159.918 306.594 154.174 275.641 136.068"/>
        <polygon class="cls-8" points="338.087 170.248 326.693 171.689 326.693 176.818 337.908 175.41 338.087 170.248"/>
        <polygon class="cls-9" points="306.594 159.918 306.594 165.174 326.873 176.797 326.873 171.666 306.594 159.918"/>
      </g>
      <polygon class="cls-9" points="395.191 150.123 395.191 156.314 463.524 117.355 463.524 111.848 395.191 150.123"/>
      <polygon class="cls-9" points="395.191 176.961 395.191 183.152 463.524 144.191 463.524 138.684 395.191 176.961"/>
      <polygon class="cls-9" points="395.191 203.514 395.191 209.705 463.524 170.744 463.524 165.236 395.191 203.514"/>
      <polyline class="cls-10" points="310.746 184.057 321.965 189.977 321.965 208.586 310.746 202.352 310.746 187.844"/>
    </g>
  </g>
</svg>
